<?xml version="1.0" standalone="no"?><!DOCTYPE svg PUBLIC "-//W3C//DTD SVG 1.1//EN" "http://www.w3.org/Graphics/SVG/1.1/DTD/svg11.dtd"><svg t="1511854748405" class="icon" fill="#fff" style="" viewBox="0 0 1024 1024" version="1.1" xmlns="http://www.w3.org/2000/svg" p-id="1861" xmlns:xlink="http://www.w3.org/1999/xlink" width="28" height="36"><defs><style type="text/css"></style></defs><path d="M548.592406 93.877087c-6.610558-3.018753-13.652951-4.493338-20.647249-4.493338-11.748578 0-23.363104 4.15974-32.586163 12.155854L260.754792 304.903292 113.526613 304.903292c-27.467585 0-49.734728 22.267143-49.734728 49.734728l0 314.988997c0 27.467585 22.267143 49.734728 49.734728 49.734728l147.245575 0 234.610342 203.119117c9.218966 7.981788 20.825304 12.135388 32.562627 12.135388 7.000438 0 14.045901-1.477654 20.661575-4.499477 17.706267-8.091282 29.064966-25.768897 29.064966-45.236274L577.671699 139.119501C577.671699 119.645984 566.305837 101.964276 548.592406 93.877087zM527.935947 884.880499 279.310404 669.627017 113.526613 669.627017 113.526613 354.638019l165.783791 0 248.625544-215.518518L527.935947 884.880499z" p-id="1862"></path><path d="M853.269547 512.132006l99.652628-99.635231c9.715269-9.715269 9.715269-25.464975 0-35.17922-9.715269-9.715269-25.464975-9.715269-35.17922 0l-99.635231 99.652628-99.636255-99.652628c-9.715269-9.715269-25.464975-9.715269-35.17922 0-9.715269 9.715269-9.715269 25.464975 0 35.17922l99.652628 99.635231-99.652628 99.636255c-9.715269 9.715269-9.715269 25.464975 0 35.17922 9.715269 9.715269 25.464975 9.715269 35.17922 0l99.636255-99.652628 99.635231 99.652628c9.715269 9.715269 25.464975 9.715269 35.17922 0 9.715269-9.715269 9.715269-25.464975 0-35.17922L853.269547 512.132006z" p-id="1863"></path></svg>