<?xml version="1.0" standalone="no"?><!DOCTYPE svg PUBLIC "-//W3C//DTD SVG 1.1//EN" "http://www.w3.org/Graphics/SVG/1.1/DTD/svg11.dtd"><svg t="1511856078028" class="icon" fill="#fff" style="" viewBox="0 0 1024 1024" version="1.1" xmlns="http://www.w3.org/2000/svg" p-id="1749" xmlns:xlink="http://www.w3.org/1999/xlink" width="28" height="36"><defs><style type="text/css"></style></defs><path d="M678.4 984.576c25.088 0 43.52-18.432 43.52-43.52v-197.632c0-12.288 12.288-25.088 25.088-25.088h209.92c25.088 0 43.52-18.432 43.52-43.52s-18.432-43.52-43.52-43.52h-252.928c-36.864 0-67.584 30.72-67.584 67.584v234.496c-0.512 33.28 17.92 51.2 41.984 51.2z m26.112-598.528H957.44c25.088 0 43.52-18.432 43.52-43.52s-18.432-43.52-43.52-43.52h-209.92c-12.288 0-25.088-12.288-25.088-25.088v-191.488c0-25.088-18.432-43.52-43.52-43.52s-43.52 18.432-43.52 43.52V317.44c1.536 37.376 32.256 68.608 69.12 68.608z m-636.928 0h252.928c36.864 0 67.584-30.72 67.584-67.584v-234.496c0-25.088-18.432-43.52-43.52-43.52s-43.52 18.432-43.52 43.52v191.488c0 12.288-12.288 25.088-25.088 25.088h-209.92c-25.088 0-43.52 18.432-43.52 43.52 2.56 23.552 20.992 41.984 45.056 41.984z m0 327.168h209.92c12.288 0 25.088 12.288 25.088 25.088v197.632c0 25.088 18.432 43.52 43.52 43.52s43.52-18.432 43.52-43.52V701.44c0-36.864-30.72-67.584-67.584-67.584h-252.928c-25.088 0-43.52 18.432-43.52 43.52-0.512 23.552 17.92 35.84 41.984 35.84z" p-id="1750"></path></svg>